<svg width="800" height="800" viewBox="0 0 800 800" fill="none" xmlns="http://www.w3.org/2000/svg">
<path d="M360 437.025L338.193 443.681V444.813C347.728 452.366 354.242 459.965 357.734 467.611C361.133 475.258 362.832 485.076 362.832 497.064C362.832 512.452 358.678 524.488 350.371 533.173C342.064 541.763 330.311 546.059 315.112 546.059C298.97 546.059 286.792 540.064 278.579 528.075C270.366 516.086 265.882 497.82 265.127 473.275L264.277 446.229H255.923C245.916 446.229 238.459 448.59 233.55 453.31C228.547 457.935 226.045 465.157 226.045 474.975C226.045 482.999 227.225 490.692 229.585 498.056C231.945 505.419 234.73 512.499 237.939 519.296L214.15 530.058C209.714 521.562 206.362 512.263 204.097 502.162C201.737 492.061 200.557 482.527 200.557 473.559C200.557 453.64 204.899 438.63 213.584 428.529C222.269 418.334 235.91 413.236 254.507 413.236H360V437.025ZM337.344 486.586C337.344 474.503 333.993 464.826 327.29 457.558C320.493 450.194 311.006 446.513 298.828 446.513H285.234L286.084 466.62C286.65 482.291 289.294 493.713 294.014 500.888C298.639 507.968 305.767 511.508 315.396 511.508C322.381 511.508 327.809 509.431 331.68 505.277C335.456 501.124 337.344 494.893 337.344 486.586ZM362.832 313.637C362.832 337.331 355.941 355.362 342.158 367.729C328.281 380.001 308.41 386.137 282.544 386.137C256.206 386.137 235.957 379.717 221.797 366.879C207.637 353.946 200.557 335.302 200.557 310.946C200.557 294.426 203.625 279.558 209.761 266.342L236.523 276.396C231.048 290.461 228.311 302.073 228.311 311.229C228.311 338.323 246.294 351.869 282.261 351.869C299.819 351.869 313.035 348.518 321.909 341.815C330.688 335.019 335.078 325.106 335.078 312.079C335.078 297.258 331.396 283.24 324.033 270.023H353.062C356.554 275.971 359.056 282.343 360.566 289.14C362.077 295.842 362.832 304.008 362.832 313.637ZM360 209.931V243.207H203.389V209.931H360ZM161.899 245.189C155.952 245.189 151.374 243.585 148.164 240.375C144.954 237.071 143.35 232.398 143.35 226.356C143.35 220.504 144.954 215.972 148.164 212.763C151.374 209.459 155.952 207.807 161.899 207.807C167.563 207.807 172.048 209.459 175.352 212.763C178.561 215.972 180.166 220.504 180.166 226.356C180.166 232.398 178.561 237.071 175.352 240.375C172.048 243.585 167.563 245.189 161.899 245.189Z" fill="white"/>
<path d="M682.402 362.115C682.402 421.035 666.045 466.119 633.33 497.369C600.615 528.456 553.496 544 491.973 544H392.119V187.066H502.471C559.274 187.066 603.464 202.366 635.039 232.965C666.615 263.564 682.402 306.614 682.402 362.115ZM620.879 364.068C620.879 278.619 580.921 235.895 501.006 235.895H450.469V494.928H491.973C577.91 494.928 620.879 451.308 620.879 364.068Z" fill="white"/>
<rect x="143" y="578" width="539" height="58" fill="#99E1E3"/>
</svg>
