<svg width="1700" height="512" viewBox="0 0 1700 512" fill="none" xmlns="http://www.w3.org/2000/svg">
<path fill-rule="evenodd" clip-rule="evenodd" d="M52.2842 61.5146C52.2842 55.6618 50.6558 51.1069 47.3989 47.8501C44.1421 44.5933 39.6816 42.9648 34.0176 42.9648C28.0703 42.9648 23.4919 44.5933 20.2822 47.8501C17.0726 51.1069 15.4678 55.6618 15.4678 61.5146C15.4678 67.5563 17.0726 72.2056 20.2822 75.4624C23.4919 78.7192 28.0703 80.3477 34.0176 80.3477C39.6816 80.3477 44.1421 78.7192 47.3989 75.4624C50.6558 72.2056 52.2842 67.5563 52.2842 61.5146ZM234.95 332.223C234.95 320.234 233.227 310.416 229.782 302.77C226.336 295.123 219.846 287.524 210.312 279.972V278.839L232.118 272.184V248.395H126.625C108.028 248.395 94.387 253.469 85.7021 263.617C77.0173 273.765 72.6748 288.798 72.6748 308.717C72.6748 317.685 73.8312 327.219 76.144 337.32C78.4569 347.421 81.8317 356.72 86.2686 365.216L110.058 354.454C106.848 347.657 104.063 340.577 101.703 333.214C99.3431 325.851 98.1631 318.157 98.1631 310.133C98.1631 300.315 100.641 293.07 105.597 288.397C110.553 283.724 118.035 281.388 128.041 281.388H136.396L137.245 308.434C138 332.978 142.484 351.244 150.697 363.233C158.91 375.222 171.088 381.217 187.23 381.217C202.429 381.217 214.182 376.898 222.489 368.26C230.797 359.623 234.95 347.61 234.95 332.223ZM209.462 321.744C209.462 330.051 207.55 336.282 203.727 340.436C199.904 344.589 194.499 346.666 187.514 346.666C177.885 346.666 170.734 343.102 166.061 335.975C161.388 328.848 158.769 317.449 158.202 301.778L157.353 281.671H170.946C183.124 281.671 192.588 285.329 199.337 292.645C206.087 299.961 209.462 309.661 209.462 321.744ZM232.685 124.227C234.195 130.977 234.95 139.166 234.95 148.795C234.95 172.49 228.035 190.497 214.206 202.816C200.376 215.135 180.528 221.295 154.662 221.295C128.324 221.295 108.075 214.852 93.915 201.966C79.7549 189.081 72.6748 170.46 72.6748 146.104C72.6748 129.584 75.7428 114.716 81.8789 101.5L108.642 111.554C103.166 125.619 100.429 137.231 100.429 146.388C100.429 173.481 118.412 187.027 154.379 187.027C171.938 187.027 185.13 183.653 193.957 176.903C202.783 170.153 207.196 160.265 207.196 147.237C207.196 132.416 203.515 118.398 196.151 105.182H225.18C228.673 111.129 231.174 117.477 232.685 124.227ZM75.5068 45.0889H232.118V78.3652H75.5068V45.0889Z" fill="#32325D"/>
<path fill-rule="evenodd" clip-rule="evenodd" d="M1100.51 72.9414C1110.6 72.9414 1118.45 70.1338 1124.07 64.5186C1129.68 58.9033 1132.49 51.2129 1132.49 41.4473C1132.49 31.1934 1129.68 23.2995 1124.07 17.7656C1118.45 12.2318 1110.6 9.46484 1100.51 9.46484C1090.09 9.46484 1082.07 12.2318 1076.46 17.7656C1070.84 23.2995 1068.04 31.1934 1068.04 41.4473C1068.04 51.2129 1070.84 58.9033 1076.46 64.5186C1082.07 70.1338 1090.09 72.9414 1100.51 72.9414ZM368.973 383C430.496 383 477.615 367.416 510.33 336.247C543.045 305.078 559.402 260.035 559.402 201.115C559.402 145.614 543.615 102.564 512.039 71.9648C480.464 41.3659 436.274 26.0664 379.471 26.0664H269.119V383H368.973ZM327.469 333.928V74.8945H378.006C457.921 74.8945 497.879 117.619 497.879 203.068C497.879 290.308 454.91 333.928 368.973 333.928H327.469ZM766.951 383.732C752.628 386.499 736.271 387.883 717.879 387.883C675.887 387.883 643.05 375.635 619.368 351.14C595.687 326.644 583.846 292.912 583.846 249.943C583.846 205.835 594.832 171.167 616.805 145.939C638.777 120.712 668.969 108.098 707.381 108.098C743.025 108.098 771.183 118.921 791.854 140.568C812.524 162.215 822.859 192.001 822.859 229.924V260.93H642.928C643.742 287.134 650.822 307.276 664.168 321.354C677.514 335.433 696.313 342.473 720.564 342.473C736.515 342.473 751.367 340.967 765.12 337.956C778.873 334.945 793.644 329.94 809.432 322.941V369.572C795.434 376.245 781.274 380.965 766.951 383.732ZM643.904 219.426C646.02 197.29 652.571 180.445 663.558 168.889C674.544 157.333 689.152 151.555 707.381 151.555C725.61 151.555 739.933 157.292 750.35 168.767C760.766 180.241 766.137 197.128 766.463 219.426H643.904ZM1010.63 366.765C991.427 380.843 963.921 387.883 928.113 387.883C892.143 387.883 863.253 382.43 841.443 371.525V321.965C873.182 336.613 902.723 343.938 930.066 343.938C965.385 343.938 983.045 333.277 983.045 311.955C983.045 305.119 981.092 299.423 977.186 294.865C973.279 290.308 966.85 285.588 957.898 280.705C948.947 275.822 936.495 270.288 920.545 264.104C889.458 252.059 868.421 240.015 857.435 227.971C846.448 215.926 840.955 200.301 840.955 181.096C840.955 157.984 850.273 140.039 868.909 127.263C887.545 114.486 912.895 108.098 944.959 108.098C976.697 108.098 1006.73 114.527 1035.05 127.385L1016.49 170.598C987.358 158.553 962.863 152.531 943.006 152.531C912.732 152.531 897.596 161.158 897.596 178.41C897.596 186.874 901.543 194.035 909.437 199.895C917.33 205.754 934.542 213.811 961.072 224.064C983.37 232.691 999.565 240.585 1009.66 247.746C1019.75 254.908 1027.23 263.168 1032.12 272.526C1037 281.885 1039.44 293.075 1039.44 306.096C1039.44 332.463 1029.84 352.686 1010.63 366.765ZM1128.83 112.98V383H1071.45V112.98H1128.83ZM1258.74 503.117C1306.43 503.117 1342.89 494.816 1368.11 478.215C1393.34 461.613 1405.96 438.013 1405.96 407.414C1405.96 383.488 1398.22 365.178 1382.76 352.482C1367.3 339.787 1344.68 333.439 1314.89 333.439H1267.77C1252.31 333.439 1241.69 331.893 1235.91 328.801C1230.13 325.708 1227.24 321.07 1227.24 314.885C1227.24 304.631 1233.43 295.679 1245.8 288.029C1252.8 289.331 1260.61 289.982 1269.24 289.982C1302.93 289.982 1329.38 282.007 1348.58 266.057C1367.79 250.106 1377.39 228.215 1377.39 200.383C1377.39 191.105 1376.01 182.316 1373.24 174.016C1370.47 165.715 1366.97 158.716 1362.74 153.02L1408.88 144.475V112.98H1315.38C1311.15 111.841 1304.84 110.743 1296.46 109.685C1288.08 108.627 1280.06 108.098 1272.41 108.098C1238.23 108.098 1211.9 116.154 1193.43 132.268C1174.96 148.381 1165.72 171.086 1165.72 200.383C1165.72 218.612 1170.07 234.522 1178.78 248.112C1187.49 261.703 1198.84 271.509 1212.84 277.531C1201.61 284.367 1193.15 291.285 1187.45 298.283C1181.75 305.282 1178.9 313.827 1178.9 323.918C1178.9 331.893 1181.39 339.502 1186.35 346.745C1191.31 353.988 1197.62 359.237 1205.27 362.492C1186.39 366.887 1171.7 374.74 1161.2 386.052C1150.71 397.364 1145.46 411.32 1145.46 427.922C1145.46 452.01 1155.14 470.565 1174.51 483.586C1193.88 496.607 1221.95 503.117 1258.74 503.117ZM1234.45 239.445C1243.15 248.56 1255.65 253.117 1271.92 253.117C1305.12 253.117 1321.73 235.376 1321.73 199.895C1321.73 182.316 1317.62 168.767 1309.4 159.245C1301.18 149.724 1288.69 144.963 1271.92 144.963C1255.32 144.963 1242.75 149.683 1234.2 159.123C1225.66 168.563 1221.38 182.316 1221.38 200.383C1221.38 217.31 1225.74 230.331 1234.45 239.445ZM1260.45 463.566C1240.26 463.566 1224.6 460.23 1213.45 453.557C1202.3 446.883 1196.73 437.362 1196.73 424.992C1196.73 411.809 1201.57 401.351 1211.25 393.62C1220.94 385.889 1234 382.023 1250.44 382.023H1293.89C1316.68 382.023 1332.27 384.506 1340.65 389.47C1349.03 394.434 1353.22 402.775 1353.22 414.494C1353.22 429.305 1345.57 441.187 1330.27 450.139C1314.97 459.09 1291.7 463.566 1260.45 463.566ZM1486.31 248.479V383H1428.93V112.98H1473.86L1481.91 148.381H1484.84C1492.98 135.523 1504.54 125.594 1519.51 118.596C1534.48 111.597 1551.09 108.098 1569.31 108.098C1634.09 108.098 1666.48 141.057 1666.48 206.975V383H1608.87V216.984C1608.87 196.151 1604.67 180.607 1596.29 170.354C1587.91 160.1 1574.6 154.973 1556.38 154.973C1532.12 154.973 1514.38 162.134 1503.15 176.457C1491.92 190.78 1486.31 214.787 1486.31 248.479Z" fill="#32325D"/>
<rect x="20" y="416" width="1109" height="58" fill="#99E1E3"/>
</svg>
